<svg width="109" height="31" viewBox="0 0 109 31" fill="none" xmlns="http://www.w3.org/2000/svg">
<path d="M8.9027 0.363636V12H7.49361V1.61364H1.62997V12H0.220881V0.363636H8.9027ZM15.1087 12.1818C14.3208 12.1818 13.6295 11.9943 13.0348 11.6193C12.4439 11.2443 11.9818 10.7197 11.6484 10.0455C11.3189 9.37121 11.1541 8.58333 11.1541 7.68182C11.1541 6.77273 11.3189 5.97917 11.6484 5.30114C11.9818 4.62311 12.4439 4.09659 13.0348 3.72159C13.6295 3.34659 14.3208 3.15909 15.1087 3.15909C15.8965 3.15909 16.5859 3.34659 17.1768 3.72159C17.7715 4.09659 18.2337 4.62311 18.5632 5.30114C18.8965 5.97917 19.0632 6.77273 19.0632 7.68182C19.0632 8.58333 18.8965 9.37121 18.5632 10.0455C18.2337 10.7197 17.7715 11.2443 17.1768 11.6193C16.5859 11.9943 15.8965 12.1818 15.1087 12.1818ZM15.1087 10.9773C15.7071 10.9773 16.1996 10.8239 16.5859 10.517C16.9723 10.2102 17.2583 9.80682 17.4439 9.30682C17.6295 8.80682 17.7223 8.26515 17.7223 7.68182C17.7223 7.09848 17.6295 6.55492 17.4439 6.05114C17.2583 5.54735 16.9723 5.14015 16.5859 4.82955C16.1996 4.51894 15.7071 4.36364 15.1087 4.36364C14.5102 4.36364 14.0178 4.51894 13.6314 4.82955C13.245 5.14015 12.959 5.54735 12.7734 6.05114C12.5878 6.55492 12.495 7.09848 12.495 7.68182C12.495 8.26515 12.5878 8.80682 12.7734 9.30682C12.959 9.80682 13.245 10.2102 13.6314 10.517C14.0178 10.8239 14.5102 10.9773 15.1087 10.9773ZM25.8828 10.1818L28.9283 3.27273H30.201L26.4283 12H25.3374L21.6328 3.27273H22.8828L25.8828 10.1818ZM22.451 3.27273V12H21.1101V3.27273H22.451ZM29.3146 12V3.27273H30.6555V12H29.3146ZM36.6555 12.1818C35.8677 12.1818 35.1764 11.9943 34.5817 11.6193C33.9908 11.2443 33.5286 10.7197 33.1953 10.0455C32.8658 9.37121 32.701 8.58333 32.701 7.68182C32.701 6.77273 32.8658 5.97917 33.1953 5.30114C33.5286 4.62311 33.9908 4.09659 34.5817 3.72159C35.1764 3.34659 35.8677 3.15909 36.6555 3.15909C37.4434 3.15909 38.1328 3.34659 38.7237 3.72159C39.3184 4.09659 39.7805 4.62311 40.1101 5.30114C40.4434 5.97917 40.6101 6.77273 40.6101 7.68182C40.6101 8.58333 40.4434 9.37121 40.1101 10.0455C39.7805 10.7197 39.3184 11.2443 38.7237 11.6193C38.1328 11.9943 37.4434 12.1818 36.6555 12.1818ZM36.6555 10.9773C37.254 10.9773 37.7464 10.8239 38.1328 10.517C38.5192 10.2102 38.8052 9.80682 38.9908 9.30682C39.1764 8.80682 39.2692 8.26515 39.2692 7.68182C39.2692 7.09848 39.1764 6.55492 38.9908 6.05114C38.8052 5.54735 38.5192 5.14015 38.1328 4.82955C37.7464 4.51894 37.254 4.36364 36.6555 4.36364C36.0571 4.36364 35.5646 4.51894 35.1783 4.82955C34.7919 5.14015 34.5059 5.54735 34.3203 6.05114C34.1347 6.55492 34.0419 7.09848 34.0419 7.68182C34.0419 8.26515 34.1347 8.80682 34.3203 9.30682C34.5059 9.80682 34.7919 10.2102 35.1783 10.517C35.5646 10.8239 36.0571 10.9773 36.6555 10.9773ZM41.8842 12V10.75H42.2024C42.4638 10.75 42.6816 10.6989 42.8558 10.5966C43.0301 10.4905 43.1702 10.3068 43.2763 10.0455C43.3861 9.7803 43.4695 9.41288 43.5263 8.94318C43.5869 8.4697 43.6304 7.86742 43.657 7.13636L43.8161 3.27273H49.6342V12H48.2933V4.52273H45.0888L44.9524 7.63636C44.9221 8.35227 44.8577 8.98295 44.7592 9.52841C44.6645 10.0701 44.5187 10.5246 44.3217 10.892C44.1286 11.2595 43.871 11.536 43.549 11.7216C43.227 11.9072 42.8236 12 42.3388 12H41.8842ZM52.0945 12V3.27273H55.6626C56.602 3.27273 57.3482 3.48485 57.9013 3.90909C58.4543 4.33333 58.7308 4.89394 58.7308 5.59091C58.7308 6.12121 58.5736 6.5322 58.2592 6.82386C57.9448 7.11174 57.5414 7.30682 57.049 7.40909C57.371 7.45455 57.6835 7.56818 57.9865 7.75C58.2933 7.93182 58.5471 8.18182 58.7479 8.5C58.9486 8.81439 59.049 9.20076 59.049 9.65909C59.049 10.1061 58.9354 10.5057 58.7081 10.858C58.4808 11.2102 58.1551 11.4886 57.7308 11.6932C57.3066 11.8977 56.799 12 56.2081 12H52.0945ZM53.3672 10.7727H56.2081C56.6702 10.7727 57.032 10.6629 57.2933 10.4432C57.5547 10.2235 57.6854 9.92424 57.6854 9.54545C57.6854 9.0947 57.5547 8.74053 57.2933 8.48295C57.032 8.22159 56.6702 8.09091 56.2081 8.09091H53.3672V10.7727ZM53.3672 6.93182H55.6626C56.0225 6.93182 56.3312 6.88258 56.5888 6.78409C56.8464 6.68182 57.0433 6.53788 57.1797 6.35227C57.3198 6.16288 57.3899 5.93939 57.3899 5.68182C57.3899 5.31439 57.2365 5.02651 56.9297 4.81818C56.6229 4.60606 56.2005 4.5 55.6626 4.5H53.3672V6.93182ZM64.6243 12.1818C63.8364 12.1818 63.1451 11.9943 62.5504 11.6193C61.9595 11.2443 61.4974 10.7197 61.1641 10.0455C60.8345 9.37121 60.6697 8.58333 60.6697 7.68182C60.6697 6.77273 60.8345 5.97917 61.1641 5.30114C61.4974 4.62311 61.9595 4.09659 62.5504 3.72159C63.1451 3.34659 63.8364 3.15909 64.6243 3.15909C65.4122 3.15909 66.1016 3.34659 66.6925 3.72159C67.2872 4.09659 67.7493 4.62311 68.0788 5.30114C68.4122 5.97917 68.5788 6.77273 68.5788 7.68182C68.5788 8.58333 68.4122 9.37121 68.0788 10.0455C67.7493 10.7197 67.2872 11.2443 66.6925 11.6193C66.1016 11.9943 65.4122 12.1818 64.6243 12.1818ZM64.6243 10.9773C65.2228 10.9773 65.7152 10.8239 66.1016 10.517C66.4879 10.2102 66.7739 9.80682 66.9595 9.30682C67.1451 8.80682 67.2379 8.26515 67.2379 7.68182C67.2379 7.09848 67.1451 6.55492 66.9595 6.05114C66.7739 5.54735 66.4879 5.14015 66.1016 4.82955C65.7152 4.51894 65.2228 4.36364 64.6243 4.36364C64.0258 4.36364 63.5334 4.51894 63.147 4.82955C62.7607 5.14015 62.4747 5.54735 62.2891 6.05114C62.1035 6.55492 62.0107 7.09848 62.0107 7.68182C62.0107 8.26515 62.1035 8.80682 62.2891 9.30682C62.4747 9.80682 62.7607 10.2102 63.147 10.517C63.5334 10.8239 64.0258 10.9773 64.6243 10.9773ZM77.353 3.27273V12H76.0121V3.27273H77.353ZM76.8303 7.43182V8.68182C76.5272 8.79545 76.2261 8.89583 75.9268 8.98295C75.6276 9.06629 75.3132 9.13258 74.9837 9.18182C74.6541 9.22727 74.2924 9.25 73.8984 9.25C72.9098 9.25 72.1162 8.98295 71.5178 8.44886C70.9231 7.91477 70.6257 7.11364 70.6257 6.04545V3.25H71.9666V6.04545C71.9666 6.49242 72.0518 6.85985 72.2223 7.14773C72.3928 7.43561 72.6238 7.64962 72.9155 7.78977C73.2071 7.92992 73.5348 8 73.8984 8C74.4666 8 74.9799 7.94886 75.4382 7.84659C75.9003 7.74053 76.3643 7.60227 76.8303 7.43182ZM85.6541 7.02273V8.27273H80.8359V7.02273H85.6541ZM81.1541 3.27273V12H79.8132V3.27273H81.1541ZM86.6768 3.27273V12H85.3359V3.27273H86.6768ZM90.2848 6.43182H92.7848C93.8075 6.43182 94.5897 6.69129 95.1314 7.21023C95.6731 7.72917 95.9439 8.38636 95.9439 9.18182C95.9439 9.70455 95.8227 10.1799 95.5803 10.608C95.3378 11.0322 94.9818 11.3712 94.5121 11.625C94.0424 11.875 93.4666 12 92.7848 12H89.1257V3.27273H90.4666V10.75H92.7848C93.3151 10.75 93.7507 10.6098 94.0916 10.3295C94.4325 10.0492 94.603 9.68939 94.603 9.25C94.603 8.78788 94.4325 8.41098 94.0916 8.11932C93.7507 7.82765 93.3151 7.68182 92.7848 7.68182H90.2848V6.43182ZM97.3303 12V3.27273H98.6712V12H97.3303ZM104.785 12.1818C103.944 12.1818 103.219 11.9962 102.609 11.625C102.003 11.25 101.535 10.7273 101.205 10.0568C100.879 9.38258 100.717 8.59848 100.717 7.70455C100.717 6.81061 100.879 6.02273 101.205 5.34091C101.535 4.6553 101.993 4.12121 102.58 3.73864C103.171 3.35227 103.861 3.15909 104.648 3.15909C105.103 3.15909 105.552 3.23485 105.995 3.38636C106.438 3.53788 106.842 3.78409 107.205 4.125C107.569 4.46212 107.859 4.90909 108.075 5.46591C108.29 6.02273 108.398 6.70833 108.398 7.52273V8.09091H101.671V6.93182H107.035C107.035 6.43939 106.936 6 106.739 5.61364C106.546 5.22727 106.27 4.92235 105.91 4.69886C105.554 4.47538 105.133 4.36364 104.648 4.36364C104.114 4.36364 103.652 4.49621 103.262 4.76136C102.876 5.02273 102.578 5.36364 102.37 5.78409C102.162 6.20455 102.058 6.6553 102.058 7.13636V7.90909C102.058 8.56818 102.171 9.12689 102.398 9.58523C102.629 10.0398 102.95 10.3864 103.359 10.625C103.768 10.8598 104.243 10.9773 104.785 10.9773C105.137 10.9773 105.455 10.928 105.739 10.8295C106.027 10.7273 106.275 10.5758 106.484 10.375C106.692 10.1705 106.853 9.91667 106.967 9.61364L108.262 9.97727C108.126 10.4167 107.897 10.803 107.575 11.1364C107.253 11.4659 106.855 11.7235 106.381 11.9091C105.908 12.0909 105.376 12.1818 104.785 12.1818ZM27.6023 28V19.2727H28.9432V23.0682H29.8295L32.9659 19.2727H34.6932L31.1705 23.4773L34.7386 28H33.0114L30.1477 24.3182H28.9432V28H27.6023ZM39.3821 28.1818C38.5942 28.1818 37.9029 27.9943 37.3082 27.6193C36.7173 27.2443 36.2552 26.7197 35.9219 26.0455C35.5923 25.3712 35.4276 24.5833 35.4276 23.6818C35.4276 22.7727 35.5923 21.9792 35.9219 21.3011C36.2552 20.6231 36.7173 20.0966 37.3082 19.7216C37.9029 19.3466 38.5942 19.1591 39.3821 19.1591C40.17 19.1591 40.8594 19.3466 41.4503 19.7216C42.045 20.0966 42.5071 20.6231 42.8366 21.3011C43.17 21.9792 43.3366 22.7727 43.3366 23.6818C43.3366 24.5833 43.17 25.3712 42.8366 26.0455C42.5071 26.7197 42.045 27.2443 41.4503 27.6193C40.8594 27.9943 40.17 28.1818 39.3821 28.1818ZM39.3821 26.9773C39.9806 26.9773 40.473 26.8239 40.8594 26.517C41.2457 26.2102 41.5317 25.8068 41.7173 25.3068C41.9029 24.8068 41.9957 24.2652 41.9957 23.6818C41.9957 23.0985 41.9029 22.5549 41.7173 22.0511C41.5317 21.5473 41.2457 21.1402 40.8594 20.8295C40.473 20.5189 39.9806 20.3636 39.3821 20.3636C38.7836 20.3636 38.2912 20.5189 37.9048 20.8295C37.5185 21.1402 37.2325 21.5473 37.0469 22.0511C36.8613 22.5549 36.7685 23.0985 36.7685 23.6818C36.7685 24.2652 36.8613 24.8068 37.0469 25.3068C37.2325 25.8068 37.5185 26.2102 37.9048 26.517C38.2912 26.8239 38.7836 26.9773 39.3821 26.9773ZM44.6108 28V26.75H44.929C45.1903 26.75 45.4081 26.6989 45.5824 26.5966C45.7566 26.4905 45.8968 26.3068 46.0028 26.0455C46.1127 25.7803 46.196 25.4129 46.2528 24.9432C46.3134 24.4697 46.357 23.8674 46.3835 23.1364L46.5426 19.2727H52.3608V28H51.0199V20.5227H47.8153L47.679 23.6364C47.6487 24.3523 47.5843 24.983 47.4858 25.5284C47.3911 26.0701 47.2453 26.5246 47.0483 26.892C46.8551 27.2595 46.5975 27.536 46.2756 27.7216C45.9536 27.9072 45.5502 28 45.0653 28H44.6108ZM55.9801 22.4318H58.4801C59.5028 22.4318 60.285 22.6913 60.8267 23.2102C61.3684 23.7292 61.6392 24.3864 61.6392 25.1818C61.6392 25.7045 61.518 26.1799 61.2756 26.608C61.0331 27.0322 60.6771 27.3712 60.2074 27.625C59.7377 27.875 59.1619 28 58.4801 28H54.821V19.2727H56.1619V26.75H58.4801C59.0104 26.75 59.446 26.6098 59.7869 26.3295C60.1278 26.0492 60.2983 25.6894 60.2983 25.25C60.2983 24.7879 60.1278 24.411 59.7869 24.1193C59.446 23.8277 59.0104 23.6818 58.4801 23.6818H55.9801V22.4318ZM70.544 19.2727V26.75H71.7713V30.8182H70.4304V28H63.6804V19.2727H65.0213V26.75H69.2031V19.2727H70.544ZM76.4048 28.2045C75.8518 28.2045 75.3499 28.1004 74.8991 27.892C74.4484 27.6799 74.0904 27.375 73.8253 26.9773C73.5601 26.5758 73.4276 26.0909 73.4276 25.5227C73.4276 25.0227 73.526 24.6174 73.723 24.3068C73.92 23.9924 74.1832 23.7462 74.5128 23.5682C74.8423 23.3902 75.206 23.2576 75.6037 23.1705C76.0052 23.0795 76.4086 23.0076 76.8139 22.9545C77.3442 22.8864 77.7741 22.8352 78.1037 22.8011C78.437 22.7633 78.6795 22.7008 78.831 22.6136C78.9863 22.5265 79.0639 22.375 79.0639 22.1591V22.1136C79.0639 21.553 78.9105 21.1174 78.6037 20.8068C78.3007 20.4962 77.8404 20.3409 77.223 20.3409C76.5829 20.3409 76.081 20.4811 75.7173 20.7614C75.3537 21.0417 75.098 21.3409 74.9503 21.6591L73.6776 21.2045C73.9048 20.6742 74.2079 20.2614 74.5866 19.9659C74.9692 19.6667 75.3859 19.4583 75.8366 19.3409C76.2912 19.2197 76.7382 19.1591 77.1776 19.1591C77.4579 19.1591 77.7798 19.1932 78.1435 19.2614C78.5109 19.3258 78.8651 19.4602 79.206 19.6648C79.5507 19.8693 79.8366 20.178 80.0639 20.5909C80.2912 21.0038 80.4048 21.5568 80.4048 22.25V28H79.0639V26.8182H78.9957C78.9048 27.0076 78.7533 27.2102 78.5412 27.4261C78.3291 27.642 78.0469 27.8258 77.6946 27.9773C77.3423 28.1288 76.9124 28.2045 76.4048 28.2045ZM76.6094 27C77.1397 27 77.5866 26.8958 77.9503 26.6875C78.3177 26.4792 78.5942 26.2102 78.7798 25.8807C78.9692 25.5511 79.0639 25.2045 79.0639 24.8409V23.6136C79.0071 23.6818 78.8821 23.7443 78.6889 23.8011C78.4995 23.8542 78.2798 23.9015 78.0298 23.9432C77.7836 23.9811 77.5431 24.0152 77.3082 24.0455C77.0772 24.072 76.8897 24.0947 76.7457 24.1136C76.3973 24.1591 76.0715 24.233 75.7685 24.3352C75.4692 24.4337 75.2268 24.5833 75.0412 24.7841C74.8594 24.9811 74.7685 25.25 74.7685 25.5909C74.7685 26.0568 74.9408 26.4091 75.2855 26.6477C75.634 26.8826 76.0753 27 76.6094 27Z" fill="#303030"/>
</svg>
